<svg width="257" height="256" viewBox="0 0 257 256" fill="none" xmlns="http://www.w3.org/2000/svg">
<rect width="256" height="256" rx="25" fill="#121212"/>
<path d="M65.1818 241V206.091H77.3636V212.727H77.7273C78.3636 210.273 79.3712 208.477 80.75 207.341C82.1439 206.205 83.7727 205.636 85.6364 205.636C86.1818 205.636 86.7197 205.682 87.25 205.773C87.7955 205.848 88.3182 205.962 88.8182 206.114V216.818C88.197 216.606 87.4318 216.447 86.5227 216.341C85.6136 216.235 84.8333 216.182 84.1818 216.182C82.9545 216.182 81.8485 216.462 80.8636 217.023C79.8939 217.568 79.1288 218.341 78.5682 219.341C78.0076 220.326 77.7273 221.485 77.7273 222.818V241H65.1818ZM92.75 194.455H108.477L119.295 220.818H119.841L130.659 194.455H146.386V241H134.023V214.091H133.659L123.295 240.636H115.841L105.477 213.909H105.114V241H92.75V194.455ZM169.375 241.636C165.587 241.636 162.345 240.886 159.648 239.386C156.951 237.871 154.883 235.765 153.443 233.068C152.004 230.356 151.284 227.212 151.284 223.636C151.284 220.061 152.004 216.924 153.443 214.227C154.883 211.515 156.951 209.409 159.648 207.909C162.345 206.394 165.587 205.636 169.375 205.636C173.163 205.636 176.405 206.394 179.102 207.909C181.799 209.409 183.867 211.515 185.307 214.227C186.746 216.924 187.466 220.061 187.466 223.636C187.466 227.212 186.746 230.356 185.307 233.068C183.867 235.765 181.799 237.871 179.102 239.386C176.405 240.886 173.163 241.636 169.375 241.636ZM169.466 232.364C170.527 232.364 171.443 232.008 172.216 231.295C172.989 230.583 173.587 229.568 174.011 228.25C174.436 226.932 174.648 225.364 174.648 223.545C174.648 221.712 174.436 220.144 174.011 218.841C173.587 217.523 172.989 216.508 172.216 215.795C171.443 215.083 170.527 214.727 169.466 214.727C168.345 214.727 167.383 215.083 166.58 215.795C165.777 216.508 165.163 217.523 164.739 218.841C164.314 220.144 164.102 221.712 164.102 223.545C164.102 225.364 164.314 226.932 164.739 228.25C165.163 229.568 165.777 230.583 166.58 231.295C167.383 232.008 168.345 232.364 169.466 232.364ZM205.193 241.455C202.708 241.455 200.42 240.803 198.33 239.5C196.254 238.197 194.587 236.22 193.33 233.568C192.087 230.917 191.466 227.576 191.466 223.545C191.466 219.333 192.117 215.909 193.42 213.273C194.739 210.636 196.436 208.705 198.511 207.477C200.602 206.25 202.799 205.636 205.102 205.636C206.83 205.636 208.345 205.939 209.648 206.545C210.951 207.136 212.042 207.932 212.92 208.932C213.799 209.917 214.466 211 214.92 212.182H215.102V194.455H227.648V241H215.193V235.273H214.92C214.436 236.455 213.739 237.515 212.83 238.455C211.936 239.379 210.845 240.114 209.557 240.659C208.284 241.189 206.83 241.455 205.193 241.455ZM209.83 231.818C210.981 231.818 211.966 231.485 212.784 230.818C213.617 230.136 214.254 229.182 214.693 227.955C215.148 226.712 215.375 225.242 215.375 223.545C215.375 221.818 215.148 220.341 214.693 219.114C214.254 217.871 213.617 216.924 212.784 216.273C211.966 215.606 210.981 215.273 209.83 215.273C208.678 215.273 207.693 215.606 206.875 216.273C206.072 216.924 205.451 217.871 205.011 219.114C204.587 220.341 204.375 221.818 204.375 223.545C204.375 225.273 204.587 226.758 205.011 228C205.451 229.227 206.072 230.174 206.875 230.841C207.693 231.492 208.678 231.818 209.83 231.818ZM240.625 241.727C238.867 241.727 237.36 241.114 236.102 239.886C234.86 238.644 234.246 237.136 234.261 235.364C234.246 233.636 234.86 232.159 236.102 230.932C237.36 229.705 238.867 229.091 240.625 229.091C242.292 229.091 243.761 229.705 245.034 230.932C246.322 232.159 246.973 233.636 246.989 235.364C246.973 236.545 246.663 237.621 246.057 238.591C245.466 239.545 244.693 240.311 243.739 240.886C242.784 241.447 241.746 241.727 240.625 241.727Z" fill="white"/>
</svg>
