<svg width="257" height="256" viewBox="0 0 257 256" fill="none" xmlns="http://www.w3.org/2000/svg">
<rect width="256" height="256" rx="25" fill="#121212"/>
<path d="M93.9091 241H76V194.455H93.7273C98.5152 194.455 102.652 195.386 106.136 197.25C109.636 199.098 112.333 201.765 114.227 205.25C116.136 208.72 117.091 212.879 117.091 217.727C117.091 222.576 116.144 226.742 114.25 230.227C112.356 233.697 109.674 236.364 106.205 238.227C102.735 240.076 98.6364 241 93.9091 241ZM88.6364 230.273H93.4545C95.7576 230.273 97.7197 229.902 99.3409 229.159C100.977 228.417 102.22 227.136 103.068 225.318C103.932 223.5 104.364 220.97 104.364 217.727C104.364 214.485 103.924 211.955 103.045 210.136C102.182 208.318 100.909 207.038 99.2273 206.295C97.5606 205.553 95.5152 205.182 93.0909 205.182H88.6364V230.273ZM139.938 241.636C136.15 241.636 132.907 240.886 130.21 239.386C127.513 237.871 125.445 235.765 124.006 233.068C122.566 230.356 121.847 227.212 121.847 223.636C121.847 220.061 122.566 216.924 124.006 214.227C125.445 211.515 127.513 209.409 130.21 207.909C132.907 206.394 136.15 205.636 139.938 205.636C143.725 205.636 146.968 206.394 149.665 207.909C152.362 209.409 154.43 211.515 155.869 214.227C157.309 216.924 158.028 220.061 158.028 223.636C158.028 227.212 157.309 230.356 155.869 233.068C154.43 235.765 152.362 237.871 149.665 239.386C146.968 240.886 143.725 241.636 139.938 241.636ZM140.028 232.364C141.089 232.364 142.006 232.008 142.778 231.295C143.551 230.583 144.15 229.568 144.574 228.25C144.998 226.932 145.21 225.364 145.21 223.545C145.21 221.712 144.998 220.144 144.574 218.841C144.15 217.523 143.551 216.508 142.778 215.795C142.006 215.083 141.089 214.727 140.028 214.727C138.907 214.727 137.945 215.083 137.142 215.795C136.339 216.508 135.725 217.523 135.301 218.841C134.877 220.144 134.665 221.712 134.665 223.545C134.665 225.364 134.877 226.932 135.301 228.25C135.725 229.568 136.339 230.583 137.142 231.295C137.945 232.008 138.907 232.364 140.028 232.364ZM179.938 241.636C176.15 241.636 172.907 240.886 170.21 239.386C167.513 237.871 165.445 235.765 164.006 233.068C162.566 230.356 161.847 227.212 161.847 223.636C161.847 220.061 162.566 216.924 164.006 214.227C165.445 211.515 167.513 209.409 170.21 207.909C172.907 206.394 176.15 205.636 179.938 205.636C183.362 205.636 186.324 206.258 188.824 207.5C191.339 208.727 193.286 210.47 194.665 212.727C196.044 214.97 196.741 217.606 196.756 220.636H185.119C184.953 218.803 184.422 217.409 183.528 216.455C182.65 215.485 181.513 215 180.119 215C179.028 215 178.074 215.318 177.256 215.955C176.438 216.576 175.801 217.523 175.347 218.795C174.892 220.053 174.665 221.636 174.665 223.545C174.665 225.455 174.892 227.045 175.347 228.318C175.801 229.576 176.438 230.523 177.256 231.159C178.074 231.78 179.028 232.091 180.119 232.091C181.044 232.091 181.862 231.879 182.574 231.455C183.286 231.015 183.862 230.379 184.301 229.545C184.756 228.697 185.028 227.667 185.119 226.455H196.756C196.71 229.53 196.006 232.212 194.642 234.5C193.278 236.773 191.347 238.53 188.847 239.773C186.362 241.015 183.392 241.636 179.938 241.636ZM233.841 217.455H222.295C222.235 216.742 221.985 216.129 221.545 215.614C221.106 215.098 220.538 214.705 219.841 214.432C219.159 214.144 218.402 214 217.568 214C216.492 214 215.568 214.197 214.795 214.591C214.023 214.985 213.644 215.545 213.659 216.273C213.644 216.788 213.864 217.265 214.318 217.705C214.788 218.144 215.689 218.485 217.023 218.727L224.114 220C227.689 220.652 230.348 221.75 232.091 223.295C233.848 224.826 234.735 226.879 234.75 229.455C234.735 231.939 233.992 234.098 232.523 235.932C231.068 237.75 229.076 239.159 226.545 240.159C224.03 241.144 221.159 241.636 217.932 241.636C212.598 241.636 208.424 240.545 205.409 238.364C202.409 236.182 200.735 233.303 200.386 229.727H212.841C213.008 230.833 213.553 231.689 214.477 232.295C215.417 232.886 216.598 233.182 218.023 233.182C219.174 233.182 220.121 232.985 220.864 232.591C221.621 232.197 222.008 231.636 222.023 230.909C222.008 230.242 221.674 229.712 221.023 229.318C220.386 228.924 219.386 228.606 218.023 228.364L211.841 227.273C208.28 226.652 205.614 225.47 203.841 223.727C202.068 221.985 201.189 219.742 201.205 217C201.189 214.576 201.826 212.523 203.114 210.841C204.417 209.144 206.273 207.856 208.682 206.977C211.106 206.083 213.977 205.636 217.295 205.636C222.341 205.636 226.318 206.682 229.227 208.773C232.152 210.864 233.689 213.758 233.841 217.455ZM246.375 241.727C244.617 241.727 243.11 241.114 241.852 239.886C240.61 238.644 239.996 237.136 240.011 235.364C239.996 233.636 240.61 232.159 241.852 230.932C243.11 229.705 244.617 229.091 246.375 229.091C248.042 229.091 249.511 229.705 250.784 230.932C252.072 232.159 252.723 233.636 252.739 235.364C252.723 236.545 252.413 237.621 251.807 238.591C251.216 239.545 250.443 240.311 249.489 240.886C248.534 241.447 247.496 241.727 246.375 241.727Z" fill="white"/>
</svg>
